<svg aria-hidden="true" version="1.1" xmlns="http://www.w3.org/2000/svg" xmlns:xlink="http://www.w3.org/1999/xlink">
<defs>
<symbol id="search" viewBox="0 0 32 32">
<path fill="none" stroke="#fff" style="stroke: var(--color1, #fff)" stroke-linejoin="round" stroke-linecap="round" stroke-miterlimit="4" stroke-width="2.6667" d="M14.667 25.333c5.891 0 10.667-4.776 10.667-10.667s-4.776-10.667-10.667-10.667v0c-5.891 0-10.667 4.776-10.667 10.667s4.776 10.667 10.667 10.667v0zM28 28l-5.8-5.8"></path>
</symbol>
<symbol id="logo" viewBox="0 0 32 32">
<path  stroke="#818181" style="stroke: var(--color2, #818181)" stroke-linejoin="round" stroke-linecap="round" stroke-miterlimit="4" stroke-width="2.6667" d="M26.427 2.667h-20.853c-1.605 0-2.907 1.301-2.907 2.907v0 20.853c0 1.605 1.301 2.907 2.907 2.907v0h20.853c1.605 0 2.907-1.301 2.907-2.907v0-20.853c0-1.605-1.301-2.907-2.907-2.907v0zM9.333 2.667v26.667M22.667 2.667v26.667M2.667 16h26.667M2.667 9.333h6.667M2.667 22.667h6.667M22.667 22.667h6.667M22.667 9.333h6.667"></path>
</symbol>
  <symbol fill="none" viewBox="0 0 30 30" id="close">
    <path d="M8 8L22 22" stroke="currentColor" stroke-width="2"></path>
    <path d="M8 22L22 8" stroke="currentColor" stroke-width="2"></path>
  </symbol>

<symbol id="facebook" version="1.1" xml:space="preserve" viewBox="0 0 512 512">
    <path d="M288,192v-38.1c0-17.2,3.8-25.9,30.5-25.9H352V64h-55.9c-68.5,0-91.1,31.4-91.1,85.3V192h-45v64h45v192h83V256h56.4l7.6-64  H288z"></path>
</symbol>
<symbol version="1.1" id="instagram" x="0px" y="0px" enable-background="new 0 0 56.7 56.7" xml:space="preserve" viewBox="0 0 56.7 56.7">
  <g>
    <path d="M28.2,16.7c-7,0-12.8,5.7-12.8,12.8s5.7,12.8,12.8,12.8S41,36.5,41,29.5S35.2,16.7,28.2,16.7z M28.2,37.7
	c-4.5,0-8.2-3.7-8.2-8.2s3.7-8.2,8.2-8.2s8.2,3.7,8.2,8.2S32.7,37.7,28.2,37.7z"></path>
    <circle cx="41.5" cy="16.4" r="2.9"></circle>
    <path d="M49,8.9c-2.6-2.7-6.3-4.1-10.5-4.1H17.9c-8.7,0-14.5,5.8-14.5,14.5v20.5c0,4.3,1.4,8,4.2,10.7c2.7,2.6,6.3,3.9,10.4,3.9
	h20.4c4.3,0,7.9-1.4,10.5-3.9c2.7-2.6,4.1-6.3,4.1-10.6V19.3C53,15.1,51.6,11.5,49,8.9z M48.6,39.9c0,3.1-1.1,5.6-2.9,7.3
	s-4.3,2.6-7.3,2.6H18c-3,0-5.5-0.9-7.3-2.6C8.9,45.4,8,42.9,8,39.8V19.3c0-3,0.9-5.5,2.7-7.3c1.7-1.7,4.3-2.6,7.3-2.6h20.6
	c3,0,5.5,0.9,7.3,2.7c1.7,1.8,2.7,4.3,2.7,7.2V39.9L48.6,39.9z"></path>
  </g>
</symbol>
  <symbol fill="none" stroke="currentColor" stroke-linecap="round" stroke-linejoin="round" stroke-width="2"  viewBox="0 0 24 24" id="github">
    <path d="M9 19c-5 1.5-5-2.5-7-3m14 6v-3.87a3.37 3.37 0 0 0-.94-2.61c3.14-.35 6.44-1.54 6.44-7A5.44 5.44 0 0 0 20 4.77 5.07 5.07 0 0 0 19.91 1S18.73.65 16 2.48a13.38 13.38 0 0 0-7 0C6.27.65 5.09 1 5.09 1A5.07 5.07 0 0 0 5 4.77a5.44 5.44 0 0 0-1.5 3.78c0 5.42 3.3 6.61 6.44 7A3.37 3.37 0 0 0 9 18.13V22"></path>
  </symbol>
<symbol  viewBox="0 0 32 32" id="telegram">
    <title></title>
    <g id="telegram_social_media_network_chat">
      <path d="M28.59,4.29a2.23,2.23,0,0,0-2.27-.36L3.41,13.1a1.83,1.83,0,0,0,0,3.38l1.48.61a1,1,0,0,0,1.31-.53,1,1,0,0,0-.54-1.31L4.56,14.8l22.51-9a.22.22,0,0,1,.23,0,.24.24,0,0,1,.08.23L23.27,25.21a.4.4,0,0,1-.26.3.39.39,0,0,1-.39-.06l-8-6.24,7.83-7.91a1,1,0,0,0-1.22-1.56L9.75,16.54a1,1,0,1,0,1,1.72l4.83-2.85L13.23,17.8a2,2,0,0,0,.2,3.08l8,6.15a2.4,2.4,0,0,0,1.47.5,2.47,2.47,0,0,0,.83-.15,2.37,2.37,0,0,0,1.52-1.75L29.33,6.47A2.23,2.23,0,0,0,28.59,4.29Z"></path>
    </g>
</symbol>

<symbol id="heart" viewBox="0 0 34 32">
<path fill="#ff6b08" style="fill: var(--color1, #ff6b08)" d="M17.231 31.705l-2.412-2.412c-8.96-7.926-14.818-13.268-14.818-19.815 0-5.342 4.135-9.477 9.477-9.477 2.929 0 5.858 1.378 7.754 3.618 1.895-2.24 4.825-3.618 7.754-3.618 5.342 0 9.477 4.135 9.477 9.477 0 6.548-5.858 11.889-14.818 19.815l-2.412 2.412z"></path>
</symbol>
<symbol id="heart2" viewBox="0 0 34 32">
<path fill="#ff6b08" style="fill: var(--color1, #ff6b08)" d="M16.762 19.627l-1.493-1.493c-5.547-4.907-9.173-8.213-9.173-12.267 0-3.307 2.56-5.867 5.867-5.867 1.813 0 3.627 0.853 4.8 2.24 1.173-1.387 2.987-2.24 4.8-2.24 3.307 0 5.867 2.56 5.867 5.867 0 4.053-3.627 7.36-9.173 12.267l-1.493 1.493z"></path>
</symbol>
</defs>
</svg>
